<svg width="44" height="44" viewBox="0 0 44 44" fill="none" xmlns="http://www.w3.org/2000/svg">
<path d="M18 39.135C11.1429 41.4496 5.42857 39.135 2 32" stroke="#141B34" stroke-width="3" stroke-linecap="round" stroke-linejoin="round"/>
<path d="M18 42V35.5157C18 34.3192 18.3679 33.2793 18.9608 32.3397C19.3676 31.6953 19.089 30.7807 18.3542 30.5788C12.2679 28.9057 8 26.2155 8 17.2921C8 14.9722 8.76011 12.7911 10.0962 10.8928C10.4287 10.4204 10.595 10.1842 10.635 9.9702C10.6749 9.75625 10.6054 9.47705 10.4664 8.91863C9.90077 6.64583 9.93743 4.23237 10.7864 2.05645C10.7864 2.05645 12.5408 1.48484 16.534 3.97939C17.4456 4.54894 17.9015 4.83371 18.303 4.89742C18.7044 4.96112 19.2412 4.82769 20.3147 4.56082C21.7827 4.1959 23.2952 4 25 4C26.7048 4 28.2174 4.1959 29.6853 4.56082C30.7588 4.82769 31.2956 4.96112 31.697 4.89742C32.0985 4.83371 32.5544 4.54894 33.466 3.97939C37.4592 1.48484 39.2136 2.05645 39.2136 2.05645C40.0626 4.23237 40.0992 6.64583 39.5336 8.91863C39.3946 9.47705 39.3251 9.75625 39.365 9.9702C39.405 10.1841 39.5713 10.4204 39.9038 10.8928C41.2399 12.7911 42 14.9722 42 17.2921C42 26.2155 37.7321 28.9057 31.6458 30.5788C30.911 30.7807 30.6324 31.6953 31.0392 32.3397C31.6321 33.2793 32 34.3192 32 35.5157V42" stroke="#141B34" stroke-width="3" stroke-linecap="round" stroke-linejoin="round"/>
</svg>
